<svg xmlns="http://www.w3.org/2000/svg" width="266.786" height="271.5" viewBox="0 0 266.7857142857143 271.5"><defs><clipPath id="a"><path d="M38.571 1.5h225v225h-225z"/></clipPath></defs><path fill="none" stroke="#000" d="M38.571 226.5V1.5M54.643 226.5V1.5M70.714 226.5V1.5M86.786 226.5V1.5M102.857 226.5V1.5M118.929 226.5V1.5M135 226.5V1.5M151.071 226.5V1.5M167.143 226.5V1.5M183.214 226.5V1.5M199.286 226.5V1.5M215.357 226.5V1.5M231.429 226.5V1.5M247.5 226.5V1.5M263.571 226.5V1.5M38.571 226.5h225M38.571 211.5h225M38.571 196.5h225M38.571 181.5h225M38.571 166.5h225M38.571 151.5h225M38.571 136.5h225M38.571 121.5h225M38.571 106.5h225M38.571 91.5h225M38.571 76.5h225M38.571 61.5h225M38.571 46.5h225M38.571 31.5h225M38.571 16.5h225M38.571 1.5h225" stroke-width="2" opacity=".1"/><path fill="none" stroke="#000" d="M38.571 226.5" stroke-width="2"/><path fill="none" stroke="#000" d="M258.021 232.1c.35-2.1 4.2-5.25 5.25-5.6-1.05-.35-4.9-3.5-5.25-5.6" stroke-width="2" stroke-linejoin="round" stroke-linecap="round"/><path fill="none" stroke="#000" d="M38.571 226.5h223.95M38.571 226.5" stroke-width="2"/><path fill="none" stroke="#000" d="M44.921 7.8c-2.1-.35-5.25-4.2-5.6-5.25-.35 1.05-3.5 4.9-5.6 5.25" stroke-width="2" stroke-linejoin="round" stroke-linecap="round"/><path fill="none" stroke="#000" d="M38.571 226.5V2.55" stroke-width="2"/><path fill="none" stroke="#000" d="M70.714 231.5v-10M102.857 231.5v-10M135 231.5v-10M167.143 231.5v-10M199.286 231.5v-10M231.429 231.5v-10M33.571 196.5h10M33.571 166.5h10M33.571 136.5h10M33.571 106.5h10M33.571 76.5h10M33.571 46.5h10M33.571 16.5h10"/><ellipse cx="70.714" cy="31.5" rx="4" ry="4" stroke="#000" stroke-width="2" clip-path="url(#a)"/><ellipse cx="102.857" cy="106.5" rx="4" ry="4" stroke="#000" stroke-width="2" clip-path="url(#a)"/><ellipse cx="135" cy="138" rx="4" ry="4" stroke="#000" stroke-width="2" clip-path="url(#a)"/><ellipse cx="167.143" cy="122.25" rx="4" ry="4" stroke="#000" stroke-width="2" clip-path="url(#a)"/><ellipse cx="199.286" cy="102.45" rx="4" ry="4" stroke="#000" stroke-width="2" clip-path="url(#a)"/><ellipse cx="231.429" cy="78.45" rx="4" ry="4" stroke="#000" stroke-width="2" clip-path="url(#a)"/><ellipse cx="78.75" cy="61.5" rx="4" ry="4" stroke="#000" stroke-width="2" clip-path="url(#a)"/><ellipse cx="86.786" cy="84" rx="4" ry="4" stroke="#000" stroke-width="2" clip-path="url(#a)"/><ellipse cx="118.929" cy="125.25" rx="4" ry="4" stroke="#000" stroke-width="2" clip-path="url(#a)"/><ellipse cx="151.071" cy="129" rx="4" ry="4" stroke="#000" stroke-width="2" clip-path="url(#a)"/><ellipse cx="183.214" cy="110.25" rx="4" ry="4" stroke="#000" stroke-width="2" clip-path="url(#a)"/><ellipse cx="215.357" cy="87.75" rx="4" ry="4" stroke="#000" stroke-width="2" clip-path="url(#a)"/></svg>
