<svg xmlns="http://www.w3.org/2000/svg" width="278.333" height="293.75" viewBox="0 0 278.3333333333333 293.75"><defs><clipPath id="a"><path d="M25 2.083h250v250H25z"/></clipPath></defs><path fill="none" stroke="#000" d="M25 252.083v-250M41.667 252.083v-250M58.333 252.083v-250M75 252.083v-250M91.667 252.083v-250M108.333 252.083v-250M125 252.083v-250M141.667 252.083v-250M158.333 252.083v-250M175 252.083v-250M191.667 252.083v-250M208.333 252.083v-250M225 252.083v-250M241.667 252.083v-250M258.333 252.083v-250M275 252.083v-250M25 252.083h250M25 241.667h250M25 231.25h250M25 220.833h250M25 210.417h250M25 200h250M25 189.583h250M25 179.167h250M25 168.75h250M25 158.333h250M25 147.917h250M25 137.5h250M25 127.083h250M25 116.667h250M25 106.25h250M25 95.833h250M25 85.417h250M25 75h250M25 64.583h250M25 54.167h250M25 43.75h250M25 33.333h250M25 22.917h250M25 12.5h250M25 2.083h250" stroke-width="2" opacity=".1"/><path fill="none" stroke="#000" d="M32.05 246.484c-.35 2.1-4.2 5.25-5.25 5.6 1.05.35 4.9 3.5 5.25 5.6" stroke-width="2" stroke-linejoin="round" stroke-linecap="round"/><path fill="none" stroke="#000" d="M41.667 252.083H26.05" stroke-width="2"/><path fill="none" stroke="#000" d="M269.45 257.683c.35-2.1 4.2-5.25 5.25-5.6-1.05-.35-4.9-3.5-5.25-5.6" stroke-width="2" stroke-linejoin="round" stroke-linecap="round"/><path fill="none" stroke="#000" d="M41.667 252.083H273.95M41.667 252.083" stroke-width="2"/><path fill="none" stroke="#000" d="M48.017 8.383c-2.1-.35-5.25-4.2-5.6-5.25-.35 1.05-3.5 4.9-5.6 5.25" stroke-width="2" stroke-linejoin="round" stroke-linecap="round"/><path fill="none" stroke="#000" d="M41.667 252.083V3.133" stroke-width="2"/><path fill="none" stroke="#000" d="M75 257.083v-10M108.333 257.083v-10M141.667 257.083v-10M175 257.083v-10M208.333 257.083v-10M241.667 257.083v-10M36.667 200h10M36.667 147.917h10M36.667 95.833h10M36.667 43.75h10"/><ellipse cx="41.667" cy="22.917" rx="4" ry="4" stroke="#000" stroke-width="2" clip-path="url(#a)"/><ellipse cx="75" cy="75" rx="4" ry="4" stroke="#000" stroke-width="2" clip-path="url(#a)"/><ellipse cx="116.667" cy="78.125" rx="4" ry="4" stroke="#000" stroke-width="2" clip-path="url(#a)"/><ellipse cx="161.667" cy="104.167" rx="4" ry="4" stroke="#000" stroke-width="2" clip-path="url(#a)"/><ellipse cx="208.333" cy="127.083" rx="4" ry="4" stroke="#000" stroke-width="2" clip-path="url(#a)"/><ellipse cx="255" cy="189.583" rx="4" ry="4" stroke="#000" stroke-width="2" clip-path="url(#a)"/></svg>
