<svg xmlns="http://www.w3.org/2000/svg" width="245.556" height="242.857" viewBox="0 0 245.55555555555557 242.85714285714286"><defs><clipPath id="a"><path d="M40 4.762h200v200H40z"/></clipPath></defs><path fill="none" stroke="#000" d="M40 204.762v-200M62.222 204.762v-200M84.444 204.762v-200M106.667 204.762v-200M128.889 204.762v-200M151.111 204.762v-200M173.333 204.762v-200M195.556 204.762v-200M217.778 204.762v-200M240 204.762v-200M40 204.762h200M40 157.143h200M40 109.524h200M40 61.905h200M40 14.286h200" stroke-width="2" opacity=".1"/><path fill="none" stroke="#000" d="M40 204.762" stroke-width="2"/><path fill="none" stroke="#000" d="M234.45 210.362c.35-2.1 4.2-5.25 5.25-5.6-1.05-.35-4.9-3.5-5.25-5.6" stroke-width="2" stroke-linejoin="round" stroke-linecap="round"/><path fill="none" stroke="#000" d="M40 204.762h198.95M40 204.762" stroke-width="2"/><path fill="none" stroke="#000" d="M46.35 11.062c-2.1-.35-5.25-4.2-5.6-5.25-.35 1.05-3.5 4.9-5.6 5.25" stroke-width="2" stroke-linejoin="round" stroke-linecap="round"/><path fill="none" stroke="#000" d="M40 204.762V5.812" stroke-width="2"/><path fill="none" stroke="#000" d="M84.444 209.762v-10M128.889 209.762v-10M173.333 209.762v-10M217.778 209.762v-10M35 157.143h10M35 109.524h10M35 61.905h10M35 14.286h10"/><ellipse cx="62.222" cy="30.667" rx="4" ry="4" stroke="#000" stroke-width="2" clip-path="url(#a)"/><ellipse cx="84.444" cy="108.952" rx="4" ry="4" stroke="#000" stroke-width="2" clip-path="url(#a)"/><ellipse cx="128.889" cy="147.429" rx="4" ry="4" stroke="#000" stroke-width="2" clip-path="url(#a)"/><ellipse cx="151.111" cy="147.048" rx="4" ry="4" stroke="#000" stroke-width="2" clip-path="url(#a)"/><ellipse cx="173.333" cy="142.476" rx="4" ry="4" stroke="#000" stroke-width="2" clip-path="url(#a)"/><ellipse cx="195.556" cy="147.333" rx="4" ry="4" stroke="#000" stroke-width="2" clip-path="url(#a)"/><ellipse cx="217.778" cy="147.238" rx="4" ry="4" stroke="#000" stroke-width="2" clip-path="url(#a)"/><ellipse cx="62.222" cy="82" rx="4" ry="4" stroke="#000" stroke-width="2" clip-path="url(#a)"/><ellipse cx="84.444" cy="131.619" rx="4" ry="4" stroke="#000" stroke-width="2" clip-path="url(#a)"/><ellipse cx="106.667" cy="107.333" rx="4" ry="4" stroke="#000" stroke-width="2" clip-path="url(#a)"/><ellipse cx="128.889" cy="150.667" rx="4" ry="4" stroke="#000" stroke-width="2" clip-path="url(#a)"/><ellipse cx="151.111" cy="152.762" rx="4" ry="4" stroke="#000" stroke-width="2" clip-path="url(#a)"/><ellipse cx="173.333" cy="148" rx="4" ry="4" stroke="#000" stroke-width="2" clip-path="url(#a)"/><ellipse cx="195.556" cy="141.333" rx="4" ry="4" stroke="#000" stroke-width="2" clip-path="url(#a)"/><ellipse cx="217.778" cy="148.476" rx="4" ry="4" stroke="#000" stroke-width="2" clip-path="url(#a)"/><ellipse cx="62.222" cy="45.429" rx="4" ry="4" stroke="#000" stroke-width="2" clip-path="url(#a)"/><ellipse cx="84.444" cy="112.476" rx="4" ry="4" stroke="#000" stroke-width="2" clip-path="url(#a)"/><ellipse cx="106.667" cy="146.19" rx="4" ry="4" stroke="#000" stroke-width="2" clip-path="url(#a)"/><ellipse cx="128.889" cy="146.381" rx="4" ry="4" stroke="#000" stroke-width="2" clip-path="url(#a)"/><ellipse cx="151.111" cy="149.905" rx="4" ry="4" stroke="#000" stroke-width="2" clip-path="url(#a)"/><ellipse cx="173.333" cy="145.333" rx="4" ry="4" stroke="#000" stroke-width="2" clip-path="url(#a)"/><ellipse cx="195.556" cy="144.857" rx="4" ry="4" stroke="#000" stroke-width="2" clip-path="url(#a)"/><ellipse cx="217.778" cy="148.571" rx="4" ry="4" stroke="#000" stroke-width="2" clip-path="url(#a)"/><ellipse cx="62.222" cy="16.857" rx="4" ry="4" stroke="#000" stroke-width="2" clip-path="url(#a)"/><ellipse cx="84.444" cy="101.714" rx="4" ry="4" stroke="#000" stroke-width="2" clip-path="url(#a)"/><ellipse cx="106.667" cy="116.476" rx="4" ry="4" stroke="#000" stroke-width="2" clip-path="url(#a)"/><ellipse cx="151.111" cy="150" rx="4" ry="4" stroke="#000" stroke-width="2" clip-path="url(#a)"/><ellipse cx="173.333" cy="153.714" rx="4" ry="4" stroke="#000" stroke-width="2" clip-path="url(#a)"/><ellipse cx="195.556" cy="153.81" rx="4" ry="4" stroke="#000" stroke-width="2" clip-path="url(#a)"/><ellipse cx="217.778" cy="146.286" rx="4" ry="4" stroke="#000" stroke-width="2" clip-path="url(#a)"/><ellipse cx="62.222" cy="26.381" rx="4" ry="4" stroke="#000" stroke-width="2" clip-path="url(#a)"/><ellipse cx="128.889" cy="143.714" rx="4" ry="4" stroke="#000" stroke-width="2" clip-path="url(#a)"/><ellipse cx="151.111" cy="150" rx="4" ry="4" stroke="#000" stroke-width="2" clip-path="url(#a)"/><ellipse cx="173.333" cy="151.619" rx="4" ry="4" stroke="#000" stroke-width="2" clip-path="url(#a)"/><ellipse cx="195.556" cy="148.381" rx="4" ry="4" stroke="#000" stroke-width="2" clip-path="url(#a)"/><ellipse cx="217.778" cy="144.476" rx="4" ry="4" stroke="#000" stroke-width="2" clip-path="url(#a)"/></svg>
